<!DOCTYPE svg PUBLIC "-//W3C//DTD SVG 1.1//EN" "http://www.w3.org/Graphics/SVG/1.1/DTD/svg11.dtd">

<!-- Uploaded to: SVG Repo, www.svgrepo.com, Transformed by: SVG Repo Mixer Tools -->
<svg width="800px" height="800px" viewBox="-3 0 32 32" version="1.1" xmlns="http://www.w3.org/2000/svg" xmlns:xlink="http://www.w3.org/1999/xlink" xmlns:sketch="http://www.bohemiancoding.com/sketch/ns" fill="#000000">

<g id="SVGRepo_bgCarrier" stroke-width="0"/>

<g id="SVGRepo_tracerCarrier" stroke-linecap="round" stroke-linejoin="round"/>

<g id="SVGRepo_iconCarrier"> <title>file-document</title> <desc>Created with Sketch Beta.</desc> <defs> </defs> <g id="Page-1" stroke="none" stroke-width="1" fill="none" fill-rule="evenodd" sketch:type="MSPage"> <g id="Icon-Set-Filled" sketch:type="MSLayerGroup" transform="translate(-156.000000, -101.000000)" fill="#ffffff"> <path d="M176,109 C174.896,109 174,108.104 174,107 L174,103 L180,109 L176,109 L176,109 Z M174,101 L174,101.028 C173.872,101.028 160,101 160,101 C157.791,101 156,102.791 156,105 L156,129 C156,131.209 157.791,133 160,133 L178,133 C180.209,133 182,131.209 182,129 L182,111 L182,109 L174,101 L174,101 Z" id="file-document" sketch:type="MSShapeGroup"> </path> </g> </g> </g>

</svg>